<svg width="218" height="19" viewBox="0 0 218 19" fill="none" xmlns="http://www.w3.org/2000/svg">
<path d="M30.2788 5.73852H34.7794V18.8572L38.1059 15.1199V15.0817V5.73852H42.6456V2.45886H30.2788V5.73852Z" fill="#25282A"/>
<path d="M11.0241 3.98429C9.96748 3.0309 8.51946 2.45886 6.99318 2.45886H0.379272V17.4461H3.70579V13.0987H6.99318C8.5586 13.0987 9.96748 12.5267 11.0241 11.5733C12.0808 10.6199 12.7461 9.28513 12.7461 7.75971C12.7461 6.27242 12.0808 4.89954 11.0241 3.98429ZM9.41958 7.79784C9.41958 8.86564 8.98909 9.32327 8.48033 9.59022C7.97157 9.85717 7.3454 9.85717 6.99318 9.85717H3.70579V5.73852H6.99318C7.30626 5.73852 7.93243 5.73852 8.48033 6.00547C8.94996 6.27242 9.41958 6.73005 9.41958 7.79784Z" fill="#25282A"/>
<path d="M95.1264 9.32326C94.148 8.48427 92.9348 8.36987 91.5259 8.36987H89.4908C89.1778 8.36987 88.669 8.36987 88.2776 8.17919C87.8863 8.02665 87.6123 7.72156 87.6123 7.11139C87.6123 6.38682 87.9254 6.08173 88.2776 5.89105C88.669 5.70038 89.1386 5.70038 89.4126 5.70038H89.4517H95.4786V2.42072H89.4908C88.1211 2.42072 86.8296 2.7258 85.8904 3.56478C84.9511 4.40377 84.325 5.73851 84.325 7.07326C84.325 8.408 84.8728 9.78088 85.8512 10.5817C86.8296 11.4207 88.0037 11.5351 89.4908 11.5351H91.565C91.839 11.5351 92.3086 11.5351 92.6608 11.6877C93.0131 11.8402 93.3261 12.1072 93.3261 12.7555C93.3261 13.48 93.013 13.7851 92.6217 13.9758C92.2303 14.1665 91.7607 14.1665 91.4868 14.1665C90.9389 14.1665 85.1077 14.1665 85.1077 14.1665H84.9511V17.408H91.5259C92.8956 17.408 94.1871 17.0648 95.1264 16.2639C96.0656 15.425 96.6918 14.1283 96.6918 12.7936V12.7555C96.6918 11.497 96.0656 10.1622 95.1264 9.32326Z" fill="#25282A"/>
<path d="M44.6415 4.78514V17.4843H48.1245V0.857178L44.6415 4.70887V4.78514Z" fill="#25282A"/>
<path d="M22.9214 12.7555C23.6649 12.4885 24.3302 12.1072 24.9173 11.6114C25.9739 10.658 26.6392 9.32327 26.6392 7.79784C26.6392 6.27242 25.9739 4.93768 24.9173 3.98429C23.8606 3.0309 22.4126 2.45886 20.8863 2.45886H14.2333V17.4461H17.5598V11.4207L22.9214 17.4843H27.0697L26.8349 17.2173L22.9214 12.7555ZM23.2736 7.79784C23.2736 8.86564 22.8431 9.32327 22.3343 9.59022C21.8256 9.85717 21.1994 9.85717 20.8472 9.85717H17.5598V5.73852H20.8472C21.1603 5.73852 21.7864 5.73852 22.3343 6.00547C22.8431 6.27242 23.2736 6.73005 23.2736 7.79784Z" fill="#25282A"/>
<path d="M70.1579 3.60297C69.3752 4.28941 68.9447 5.20467 68.9447 6.23433V13.7089C68.9447 14.7004 69.3752 15.6538 70.1579 16.3403C70.9015 17.0267 71.8407 17.4843 73.0539 17.4843H82.7987V14.2428H82.6421H72.7017C72.5843 14.2428 72.506 14.2047 72.3886 14.1284C72.2712 14.0521 72.2321 13.8996 72.2321 13.747V11.6496H81.3115V8.40806H72.2321V6.3106C72.2321 6.11992 72.3104 6.00552 72.4278 5.92924C72.5452 5.81484 72.6234 5.81484 72.7408 5.81484H82.7987V2.53518H73.0539C71.8407 2.49704 70.9406 2.95467 70.1579 3.60297Z" fill="#25282A"/>
<path d="M62.3309 2.45886H54.6603C53.6428 2.45886 52.6644 2.87835 51.96 3.64107C51.2555 4.36564 50.7859 5.31903 50.7859 6.50123V17.4461H54.1124V17.2936V6.19615C54.1124 6.08174 54.1515 6.00547 54.2298 5.89107C54.3081 5.77666 54.4646 5.73852 54.6212 5.73852H56.7736V17.4461H60.1001V5.73852H62.2526C62.4091 5.73852 62.5657 5.81479 62.644 5.9292C62.7614 6.04361 62.7614 6.11988 62.7614 6.23429V17.4843H66.127V6.50123C66.127 5.2809 65.6574 4.36564 64.9529 3.64107C64.3268 2.87835 63.3875 2.45886 62.3309 2.45886Z" fill="#25282A"/>
<path d="M204.98 3.60297C204.197 4.28941 203.767 5.20467 203.767 6.23433V13.7089C203.767 14.7004 204.197 15.6538 204.98 16.3403C205.723 17.0267 206.663 17.4843 207.876 17.4843H217.621V14.2428H217.464H207.524C207.406 14.2428 207.328 14.2047 207.211 14.1284C207.093 14.0521 207.054 13.8996 207.054 13.747V11.6496H216.133V8.40806H207.054V6.3106C207.054 6.11992 207.132 6.00552 207.25 5.92924C207.367 5.81484 207.445 5.81484 207.563 5.81484H217.621V2.53518H207.876C206.663 2.49704 205.763 2.95467 204.98 3.60297Z" fill="#25282A"/>
<path d="M117.786 2.45886H110.115C109.098 2.45886 108.119 2.87835 107.415 3.64107C106.71 4.36564 106.241 5.31903 106.241 6.50123V17.4461H109.567V17.2936V6.19615C109.567 6.08174 109.607 6.00547 109.685 5.89107C109.763 5.77666 109.92 5.73852 110.076 5.73852H112.229V17.4461H115.555V5.73852H117.708C117.864 5.73852 118.021 5.81479 118.099 5.9292C118.216 6.04361 118.216 6.11988 118.216 6.23429V17.4843H121.582V6.50123C121.582 5.2809 121.112 4.36564 120.408 3.64107C119.782 2.87835 118.843 2.45886 117.786 2.45886Z" fill="#25282A"/>
<path d="M197.544 2.45886H192.574C191.556 2.45886 190.578 2.87835 189.873 3.64107C189.169 4.36564 188.699 5.31903 188.699 6.50123V17.4461H192.026V17.2936V6.19615C192.026 6.08174 192.065 6.00547 192.143 5.89107C192.222 5.77666 192.378 5.73852 192.535 5.73852H197.466C197.622 5.73852 197.779 5.81479 197.857 5.9292C197.974 6.04361 197.974 6.11988 197.974 6.23429V17.4843H201.34V6.50123C201.34 5.2809 200.87 4.36564 200.166 3.64107C199.54 2.87835 198.561 2.45886 197.544 2.45886Z" fill="#25282A"/>
<path d="M182.673 4.78515V17.4843H186.156V0.895325L182.673 4.74702V4.78515Z" fill="#25282A"/>
<path d="M179.855 2.80208L180.09 2.45886H167.879V5.73852H174.415L167.997 17.2555L167.879 17.4843H168.114H180.09V14.1665H173.515L179.855 2.80208Z" fill="#25282A"/>
<path d="M135.279 3.64107C134.575 2.87835 133.636 2.45886 132.579 2.45886H127.609C126.591 2.45886 125.613 2.87835 124.908 3.64107C124.204 4.36564 123.734 5.31903 123.734 6.50123V17.4461H127.061V17.2936V13.0987H133.088V17.4461H136.453V6.50123C136.414 5.31903 135.945 4.40378 135.279 3.64107ZM127.061 9.93344V6.19615C127.061 6.08174 127.1 6.00547 127.178 5.89107C127.257 5.77666 127.413 5.73852 127.57 5.73852H132.501C132.657 5.73852 132.814 5.81479 132.892 5.9292C133.01 6.04361 133.009 6.11988 133.009 6.23429V9.97157H127.061V9.93344Z" fill="#25282A"/>
<path d="M165.336 3.64107C164.631 2.87835 163.692 2.45886 162.635 2.45886H157.665C156.647 2.45886 155.669 2.87835 154.965 3.64107C154.26 4.36564 153.791 5.31903 153.791 6.50123V17.4461H157.117V17.2936V13.0987H163.144V17.4461H166.51V6.50123C166.47 5.31903 166.001 4.40378 165.336 3.64107ZM157.117 9.93344V6.19615C157.117 6.08174 157.156 6.00547 157.234 5.89107C157.313 5.77666 157.469 5.73852 157.626 5.73852H162.557C162.713 5.73852 162.87 5.81479 162.948 5.9292C163.066 6.04361 163.066 6.11988 163.066 6.23429V9.97157H157.117V9.93344Z" fill="#25282A"/>
<path d="M143.42 2.45886C142.128 2.497 140.954 2.84022 140.054 3.60293C139.154 4.40378 138.567 5.70039 138.528 6.95886V12.9843C138.567 14.2428 139.154 15.5012 140.054 16.3021C140.954 17.1029 142.128 17.408 143.42 17.4461H151.716V11.5733V9.93344H148.39V14.2428H143.341C143.107 14.2428 142.793 14.2046 142.52 14.0521C142.167 13.8614 141.854 13.5945 141.815 12.9461V7.03513C141.854 6.38683 142.128 6.08174 142.52 5.9292C142.793 5.81479 143.067 5.77666 143.341 5.73852H151.716V2.45886H143.42Z" fill="#25282A"/>
</svg>
