<svg width="138" height="31" viewBox="0 0 138 31" fill="none" xmlns="http://www.w3.org/2000/svg">
<path d="M128.71 8.11197L124.67 16.6011L120.629 8.11197H117.054L124.67 24.2262L132.301 8.11197H128.71Z" fill="#294C7A"/>
<path d="M103.942 11.3105H108.338V24.211L111.605 20.5576V20.5122V11.3105L116.032 11.3257V8.15744H103.942V11.3105Z" fill="#294C7A"/>
<path d="M132.596 30.7142H103.649C100.707 30.7142 98.308 28.3646 98.308 25.4843V5.94415C98.308 3.06391 100.707 0.714233 103.649 0.714233H132.596C135.537 0.714233 137.936 3.06391 137.936 5.94415V25.4843C137.936 28.3646 135.537 30.7142 132.596 30.7142ZM103.649 2.98811C101.977 2.98811 100.63 4.30696 100.63 5.94415V25.4843C100.63 27.1215 101.977 28.4404 103.649 28.4404H132.596C134.268 28.4404 135.614 27.1215 135.614 25.4843V5.94415C135.614 4.30696 134.268 2.98811 132.596 2.98811H103.649Z" fill="#294C7A"/>
<path d="M29.4136 11.2907H33.8408V24.2366L37.1225 20.5832V20.5226V11.2907H41.5497V8.12241H29.4136V11.2907Z" fill="#294C7A"/>
<path d="M10.5127 9.56247C9.47555 8.6226 8.06689 8.07687 6.54987 8.07687H0.0638428V22.8722H3.3146V18.567H6.54987C8.06689 18.567 9.49103 18.0061 10.5127 17.0814C11.5498 16.1567 12.1845 14.8075 12.1845 13.3371V13.3219C12.1845 11.8363 11.5498 10.4872 10.5127 9.56247ZM8.93376 13.3219C8.93376 14.3679 8.50032 14.8379 8.00497 15.0956C7.49414 15.3533 6.89043 15.3533 6.54987 15.3533H3.3146V11.2906H6.54987C6.85947 11.2906 7.47866 11.2906 7.98949 11.5483C8.50032 11.806 8.93376 12.276 8.93376 13.3219Z" fill="#294C7A"/>
<path d="M93.0971 14.8379C92.1528 14.0041 90.9454 13.8828 89.5522 13.8828H87.5399C87.2303 13.8828 86.7504 13.8677 86.3634 13.7161C85.9919 13.5493 85.7133 13.2765 85.6978 12.6701C85.6978 11.9576 85.9919 11.6544 86.3479 11.4877C86.7194 11.3209 87.1838 11.3058 87.4625 11.3058C87.4779 11.3058 87.4779 11.3058 87.4934 11.3058H93.4222V8.07687H87.5244C86.1776 8.07687 84.9238 8.39522 83.995 9.21381C83.0662 10.0324 82.447 11.3513 82.447 12.6701C82.447 13.9738 83.0043 15.3381 83.9331 16.1416C84.8773 16.9753 86.0538 17.0814 87.5244 17.0814H89.5677C89.5832 17.0814 89.5832 17.0814 89.5832 17.0814C89.8463 17.0814 90.2953 17.0814 90.6668 17.2482C91.0228 17.4149 91.3169 17.6726 91.3169 18.279C91.3169 19.0066 91.0073 19.3098 90.6358 19.4917C90.2488 19.6736 89.7999 19.6736 89.5368 19.6736C89.0104 19.6736 83.252 19.6736 83.252 19.6736H83.0972V22.8722H89.5368C90.8835 22.8722 92.1374 22.5539 93.0661 21.7201C93.9949 20.9167 94.5986 19.5978 94.6141 18.3093V18.279C94.6296 16.9753 94.0259 15.6565 93.0971 14.8379Z" fill="#294C7A"/>
<path d="M43.5311 10.3508V22.8722H46.9676V6.50034L43.5311 10.2901V10.3508Z" fill="#294C7A"/>
<path d="M22.1844 18.2184C22.912 17.9607 23.5776 17.5817 24.1194 17.0814C25.1566 16.1567 25.7912 14.8075 25.7912 13.3371V13.3219C25.7912 11.8363 25.1566 10.4872 24.1194 9.56247C23.0823 8.6226 21.6736 8.07687 20.1566 8.07687H13.686V22.8722H16.9368V16.8995L22.2154 22.8874H26.2711L26.0389 22.6297L22.1844 18.2184ZM22.5559 13.3219C22.5559 14.3679 22.1225 14.8379 21.6272 15.0956C21.1163 15.3533 20.5126 15.3533 20.1721 15.3533H16.9368V11.2906H20.1721C20.4817 11.2906 21.1008 11.2906 21.6117 11.5483C22.1225 11.806 22.5405 12.276 22.5559 13.3219Z" fill="#294C7A"/>
<path d="M68.6082 9.21385C67.8497 9.89601 67.4163 10.8056 67.4163 11.8061V19.1886C67.4163 20.1891 67.8497 21.1138 68.6082 21.7808C69.3512 22.4478 70.2491 22.9026 71.4565 22.9026C71.4565 22.9026 71.4565 22.9026 71.472 22.9026H81.054V19.704H80.8992H71.1624C71.0385 19.704 70.9766 19.6888 70.8528 19.5827C70.7599 19.4918 70.6825 19.3705 70.6825 19.1886V17.0966H79.5834L79.5989 13.898H70.6515V11.8364C70.6515 11.6696 70.7289 11.5332 70.8218 11.4422C70.9457 11.3361 71.0076 11.321 71.1314 11.321H81.023V8.09207H71.441C70.2336 8.09207 69.3512 8.54685 68.6082 9.21385Z" fill="#294C7A"/>
<path d="M60.9149 8.10721H53.3763C52.3546 8.10721 51.4104 8.53166 50.7292 9.27446C50.0481 10.0021 49.5837 10.8813 49.5837 12.0638V22.8722H52.85V22.7207V11.7606C52.85 11.6393 52.8655 11.5787 52.9738 11.4574C53.0667 11.3664 53.1905 11.2906 53.3763 11.2906H55.5125V22.8571L58.7787 22.8722V11.2906H60.8995C61.0697 11.2906 61.2091 11.3664 61.3019 11.4574C61.4103 11.5787 61.4258 11.6393 61.4258 11.7606V22.8722H64.723V12.0638C64.723 10.8813 64.2586 10.0021 63.5775 9.27446C62.8654 8.53166 61.9211 8.10721 60.9149 8.10721Z" fill="#294C7A"/>
</svg>
