<svg width="256" height="27" viewBox="0 0 256 27" fill="none" xmlns="http://www.w3.org/2000/svg">
<g clip-path="url(#clip0)">
<path d="M42.615 7.12833H49.0202V26.2922L53.824 20.8684V20.7651V7.12833H60.2292V2.42776H42.615V7.12833Z" fill="#294A76"/>
<path d="M15.1864 4.54561C13.6885 3.15094 11.6223 2.32446 9.40113 2.32446H0V24.2776H4.70057V17.9241H9.40113C11.6223 17.9241 13.6368 17.0977 15.1864 15.703C16.6844 14.3083 17.6142 12.3454 17.6142 10.1243C17.6142 7.90315 16.6844 5.94028 15.1864 4.54561ZM12.862 10.1243C12.862 11.6739 12.2421 12.3454 11.519 12.7587C10.7958 13.1203 9.86602 13.1203 9.40113 13.1203H4.70057V7.12834H9.40113C9.86602 7.12834 10.7441 7.12834 11.519 7.48992C12.2421 7.8515 12.862 8.57466 12.862 10.1243Z" fill="#294A76"/>
<path d="M135.077 12.3971C133.682 11.1574 131.926 11.0024 129.911 10.9508H126.967C126.502 10.9508 125.831 10.9508 125.262 10.6925C124.694 10.4342 124.333 10.0726 124.281 9.14286C124.281 8.10977 124.694 7.64488 125.211 7.38661C125.727 7.12834 126.399 7.12834 126.864 7.12834H126.915H135.542V2.32446H126.967C125.004 2.32446 123.196 2.78935 121.853 4.02906C120.51 5.21712 119.632 7.17999 119.632 9.14286C119.632 11.1057 120.458 13.0686 121.801 14.3083C123.196 15.548 124.901 15.703 127.019 15.703H129.963C130.324 15.703 130.996 15.703 131.513 15.9613C132.029 16.2195 132.442 16.5811 132.442 17.5109C132.442 18.5956 131.977 19.0605 131.461 19.3188C130.893 19.5771 130.221 19.5771 129.86 19.5771C129.085 19.5771 120.768 19.5771 120.768 19.5771H120.562V24.2776H129.911C131.874 24.2776 133.682 23.8128 135.025 22.573C136.368 21.385 137.246 19.4221 137.298 17.5109V17.4592C137.349 15.548 136.42 13.5852 135.077 12.3971Z" fill="#294A76"/>
<path d="M63.1218 5.682V24.2776H68.1323V0L63.1218 5.63035V5.682Z" fill="#294A76"/>
<path d="M32.1291 17.4076C33.1622 17.046 34.1437 16.4778 34.9701 15.703C36.4681 14.3083 37.3979 12.3454 37.3979 10.1243C37.3979 7.90315 36.4681 5.94028 34.9701 4.54561C33.4721 3.15094 31.406 2.32446 29.1848 2.32446H19.7837V24.2776H24.4843V15.4447L32.1291 24.2776H38.0177L37.7078 23.9161L32.1291 17.4076ZM32.6457 10.1243C32.6457 11.6739 32.0258 12.3454 31.3027 12.7587C30.5795 13.1203 29.6497 13.1203 29.1848 13.1203H24.4843V7.12834H29.1848C29.6497 7.12834 30.5278 7.12834 31.3027 7.48992C32.0258 7.8515 32.6457 8.57466 32.6457 10.1243Z" fill="#294A76"/>
<path d="M99.5384 4.02904C98.4536 5.01048 97.7821 6.40515 97.7821 7.85148V18.8022C97.7821 20.3002 98.402 21.6432 99.5384 22.6247C100.623 23.6061 101.914 24.2776 103.671 24.2776H117.566V19.5254H117.308H103.154C102.999 19.5254 102.896 19.4738 102.689 19.3188C102.534 19.1638 102.431 19.0089 102.431 18.7506V15.6513H115.345L115.396 10.8991H102.431V7.79983C102.431 7.54155 102.534 7.33494 102.689 7.23163C102.896 7.07666 102.948 7.07666 103.154 7.02501H117.514V2.3761H103.619C101.914 2.3761 100.623 3.04761 99.5384 4.02904Z" fill="#294A76"/>
<path d="M88.3293 2.3761H77.3786C75.8806 2.3761 74.5376 2.99595 73.5561 4.13235C72.5747 5.2171 71.9032 6.50846 71.9032 8.26472V24.2776H76.6554V24.0194V7.79983C76.6554 7.64486 76.7071 7.54155 76.862 7.33494C77.017 7.17997 77.172 7.07666 77.4302 7.07666H80.5295V24.226H85.2817V7.12832H88.381C88.6393 7.12832 88.8459 7.23163 88.9492 7.38659C89.1042 7.59321 89.1042 7.64486 89.1558 7.85148V24.2776H93.9597V8.26472C93.9597 6.50846 93.2882 5.2171 92.3067 4.13235C91.1703 2.99595 89.8273 2.3761 88.3293 2.3761Z" fill="#294A76"/>
<path d="M168.032 17.5626C168.032 18.699 167.826 19.732 167.361 20.5585C166.948 21.4366 166.328 22.1598 165.604 22.728C164.881 23.2962 164.003 23.7611 162.97 24.0194C161.989 24.3293 160.904 24.4326 159.768 24.4326C158.993 24.4326 158.27 24.381 157.65 24.226C156.978 24.1227 156.41 23.9677 155.893 23.7611C155.377 23.6061 154.964 23.3995 154.654 23.1929C154.292 22.9863 154.086 22.8313 153.931 22.6764C153.776 22.5214 153.672 22.3148 153.621 22.0565C153.569 21.7982 153.517 21.385 153.517 20.8684C153.517 20.5069 153.517 20.2486 153.569 19.9903C153.569 19.732 153.621 19.5771 153.672 19.4221C153.724 19.2672 153.776 19.1638 153.879 19.1122C153.982 19.0605 154.086 19.0089 154.189 19.0089C154.344 19.0089 154.55 19.1122 154.86 19.2672C155.17 19.4738 155.532 19.6804 155.997 19.887C156.462 20.0936 156.978 20.3002 157.65 20.5069C158.27 20.7135 159.044 20.7651 159.871 20.7651C160.439 20.7651 160.904 20.7135 161.369 20.5585C161.782 20.4552 162.195 20.2486 162.454 19.9903C162.763 19.732 162.97 19.4738 163.125 19.1122C163.28 18.7506 163.383 18.389 163.383 17.9241C163.383 17.4076 163.228 16.9944 162.97 16.6328C162.712 16.2712 162.35 15.9613 161.885 15.703C161.42 15.4447 160.956 15.1864 160.387 14.9282C159.819 14.6699 159.251 14.4116 158.631 14.1534C158.011 13.8951 157.443 13.5852 156.875 13.2236C156.307 12.862 155.79 12.4488 155.377 11.9839C154.912 11.519 154.602 10.9508 154.292 10.2793C154.034 9.60775 153.879 8.83294 153.879 7.95481C153.879 6.92172 154.086 5.99194 154.447 5.21712C154.86 4.4423 155.377 3.77079 156.048 3.25425C156.72 2.7377 157.495 2.32446 158.425 2.06619C159.354 1.80792 160.284 1.65295 161.317 1.65295C161.834 1.65295 162.35 1.70461 162.918 1.75626C163.435 1.85957 163.952 1.96288 164.416 2.06619C164.881 2.22115 165.295 2.37612 165.656 2.53108C166.018 2.68605 166.224 2.84101 166.379 2.94432C166.483 3.04763 166.586 3.15094 166.586 3.25425C166.638 3.35755 166.638 3.46086 166.689 3.56417C166.741 3.66748 166.741 3.8741 166.741 4.02906C166.741 4.23568 166.741 4.49395 166.741 4.75223C166.741 5.06215 166.741 5.37208 166.741 5.5787C166.741 5.78532 166.689 5.99194 166.638 6.1469C166.586 6.30186 166.534 6.40517 166.483 6.45683C166.431 6.50848 166.328 6.56014 166.173 6.56014C166.069 6.56014 165.863 6.45683 165.553 6.30186C165.295 6.1469 164.933 5.99194 164.52 5.78532C164.107 5.5787 163.642 5.42374 163.125 5.26877C162.609 5.11381 162.04 5.06215 161.369 5.06215C160.852 5.06215 160.439 5.11381 160.077 5.21712C159.716 5.32043 159.406 5.47539 159.148 5.68201C158.889 5.88863 158.734 6.1469 158.579 6.45683C158.476 6.76676 158.425 7.07668 158.425 7.38661C158.425 7.8515 158.579 8.26474 158.838 8.62632C159.096 8.9879 159.458 9.29783 159.922 9.5561C160.387 9.81437 160.904 10.0726 161.472 10.3309C162.04 10.5892 162.609 10.8475 163.228 11.1057C163.848 11.364 164.416 11.6739 164.985 12.0355C165.553 12.3971 166.069 12.8103 166.534 13.2752C166.999 13.7401 167.361 14.3083 167.619 14.9798C167.877 15.9613 168.032 16.6844 168.032 17.5626Z" fill="black"/>
<path d="M188.332 4.13236C188.332 4.44229 188.332 4.75222 188.281 4.95883C188.229 5.16545 188.229 5.37207 188.178 5.52703C188.126 5.682 188.074 5.78531 187.971 5.83696C187.868 5.88862 187.816 5.94027 187.713 5.94027H182.134V23.5545C182.134 23.6578 182.082 23.7611 182.031 23.8644C181.979 23.9677 181.824 24.0194 181.669 24.071C181.514 24.1227 181.256 24.1743 180.998 24.226C180.688 24.2776 180.326 24.2776 179.913 24.2776C179.5 24.2776 179.138 24.2776 178.828 24.226C178.518 24.1743 178.311 24.1227 178.157 24.071C178.002 24.0194 177.847 23.9677 177.795 23.8644C177.743 23.7611 177.692 23.6578 177.692 23.5545V5.94027H172.01C171.906 5.94027 171.803 5.88862 171.7 5.83696C171.596 5.78531 171.545 5.682 171.493 5.52703C171.441 5.37207 171.39 5.21711 171.39 4.95883C171.338 4.75222 171.338 4.44229 171.338 4.13236C171.338 3.77078 171.338 3.51251 171.39 3.25423C171.441 2.99596 171.441 2.841 171.493 2.68603C171.545 2.53107 171.596 2.42776 171.7 2.37611C171.803 2.32445 171.855 2.2728 172.01 2.2728H187.661C187.764 2.2728 187.868 2.32445 187.919 2.37611C188.023 2.42776 188.074 2.53107 188.126 2.68603C188.178 2.841 188.229 2.99596 188.229 3.25423C188.332 3.51251 188.332 3.77078 188.332 4.13236Z" fill="black"/>
<path d="M212.662 12.9653C212.662 14.7732 212.455 16.3745 211.99 17.8208C211.525 19.2672 210.854 20.4552 209.924 21.4366C209.046 22.4181 207.91 23.1929 206.567 23.7094C205.224 24.226 203.674 24.4843 201.918 24.4843C200.213 24.4843 198.663 24.2776 197.372 23.8128C196.081 23.3479 194.996 22.6764 194.169 21.7982C193.291 20.8684 192.672 19.732 192.258 18.3374C191.845 16.9427 191.638 15.2898 191.638 13.3269C191.638 11.5706 191.845 9.96934 192.31 8.57466C192.775 7.17999 193.446 5.94028 194.376 4.95884C195.306 3.97741 196.391 3.20259 197.734 2.68604C199.077 2.1695 200.626 1.91122 202.383 1.91122C204.087 1.91122 205.534 2.11784 206.825 2.58273C208.116 2.99597 209.201 3.71913 210.027 4.59726C210.906 5.52704 211.525 6.66344 211.99 8.05812C212.455 9.45279 212.662 11.0541 212.662 12.9653ZM207.91 13.2236C207.91 12.0872 207.806 11.0541 207.651 10.0726C207.445 9.14286 207.135 8.31639 206.722 7.64488C206.257 6.97337 205.688 6.45683 204.965 6.09524C204.242 5.73366 203.312 5.52704 202.228 5.52704C201.091 5.52704 200.213 5.73366 199.438 6.1469C198.715 6.56013 198.095 7.12833 197.63 7.79984C197.165 8.47135 196.856 9.29783 196.649 10.2276C196.442 11.1574 196.391 12.1388 196.391 13.1203C196.391 14.3083 196.494 15.3931 196.649 16.3228C196.856 17.2526 197.165 18.0791 197.579 18.7506C197.992 19.4221 198.612 19.9387 199.335 20.3002C200.058 20.6618 200.988 20.8168 202.124 20.8168C203.209 20.8168 204.139 20.6102 204.914 20.1969C205.637 19.7837 206.257 19.2155 206.722 18.544C207.186 17.8725 207.496 17.046 207.703 16.1162C207.806 15.2381 207.91 14.2567 207.91 13.2236Z" fill="black"/>
<path d="M235.028 23.5545C235.028 23.6578 235.028 23.7611 234.977 23.8644C234.925 23.9677 234.822 24.0194 234.667 24.071C234.512 24.1227 234.253 24.1743 233.892 24.1743C233.582 24.1743 233.117 24.226 232.549 24.226C232.084 24.226 231.671 24.226 231.412 24.1743C231.102 24.1743 230.896 24.1227 230.741 24.071C230.586 24.0194 230.483 23.9161 230.379 23.8128C230.328 23.7094 230.276 23.6061 230.224 23.4512L228.21 18.5956C227.952 18.0274 227.745 17.5626 227.487 17.1493C227.28 16.7361 227.022 16.3745 226.712 16.0646C226.454 15.7546 226.092 15.548 225.73 15.3931C225.369 15.2381 224.956 15.1864 224.439 15.1864H223.044V23.5028C223.044 23.6061 222.993 23.7094 222.941 23.8128C222.889 23.9161 222.734 23.9677 222.579 24.0194C222.424 24.071 222.166 24.1227 221.908 24.1743C221.598 24.226 221.236 24.226 220.823 24.226C220.41 24.226 220.048 24.226 219.738 24.1743C219.429 24.1227 219.222 24.071 219.067 24.0194C218.912 23.9677 218.757 23.9161 218.705 23.8128C218.654 23.7094 218.602 23.6061 218.602 23.5028V3.71914C218.602 3.20259 218.757 2.89266 218.964 2.63439C219.222 2.42777 219.532 2.32446 219.893 2.32446H225.627C226.195 2.32446 226.712 2.32446 227.073 2.37612C227.435 2.37612 227.797 2.42777 228.106 2.47943C228.985 2.58274 229.811 2.84101 230.534 3.09928C231.257 3.40921 231.877 3.82245 232.342 4.28734C232.859 4.75223 233.22 5.37208 233.479 6.04359C233.737 6.7151 233.892 7.48992 233.892 8.36805C233.892 9.09121 233.788 9.76272 233.634 10.3826C233.427 11.0024 233.169 11.519 232.807 11.9839C232.445 12.4488 231.981 12.862 231.464 13.2236C230.947 13.5852 230.328 13.8434 229.604 14.05C229.914 14.205 230.224 14.4116 230.534 14.6182C230.844 14.8249 231.102 15.1348 231.361 15.4447C231.619 15.7546 231.877 16.1162 232.084 16.5295C232.29 16.9427 232.549 17.4076 232.755 17.9241L234.615 22.2115C234.77 22.6247 234.925 22.9346 234.977 23.1413C235.028 23.2962 235.028 23.4512 235.028 23.5545ZM229.243 8.72963C229.243 8.00646 229.088 7.38661 228.726 6.92172C228.416 6.40517 227.848 6.09525 227.073 5.88863C226.867 5.83697 226.609 5.78532 226.299 5.73366C225.989 5.68201 225.627 5.68201 225.111 5.68201H223.096V11.8806H225.42C226.04 11.8806 226.609 11.8289 227.125 11.6739C227.59 11.519 228.003 11.3124 228.313 11.0541C228.623 10.7958 228.881 10.4342 229.036 10.0726C229.14 9.65941 229.243 9.19452 229.243 8.72963Z" fill="black"/>
<path d="M249.182 15.8579V23.5545C249.182 23.6578 249.13 23.7611 249.078 23.8644C249.027 23.9677 248.872 24.0194 248.717 24.071C248.562 24.1227 248.303 24.1743 248.045 24.226C247.735 24.2776 247.374 24.2776 246.96 24.2776C246.496 24.2776 246.134 24.2776 245.876 24.226C245.566 24.1743 245.359 24.1227 245.204 24.071C245.049 24.0194 244.894 23.9677 244.843 23.8644C244.791 23.7611 244.739 23.6578 244.739 23.5545V15.8579L238.334 4.02905C238.128 3.61582 237.973 3.30589 237.921 3.04762C237.869 2.841 237.869 2.63438 238.024 2.53107C238.179 2.42776 238.386 2.32445 238.747 2.32445C239.109 2.2728 239.574 2.2728 240.245 2.2728C240.762 2.2728 241.175 2.2728 241.485 2.32445C241.795 2.32445 242.053 2.37611 242.208 2.42776C242.415 2.47941 242.518 2.58272 242.621 2.68603C242.725 2.78934 242.776 2.89265 242.88 3.09927L245.359 8.47134C245.617 8.98789 245.824 9.55609 246.134 10.1243C246.444 10.7958 246.599 11.0541 247.064 11.8805H247.115C247.632 10.8991 247.735 10.7441 248.045 10.1243C248.355 9.50444 248.51 9.0912 248.717 8.57465L251.144 3.25423C251.196 3.09927 251.248 2.94431 251.351 2.841C251.454 2.73769 251.558 2.63438 251.713 2.58272C251.868 2.53107 252.126 2.47941 252.436 2.42776C252.746 2.42776 253.107 2.37611 253.624 2.37611C254.295 2.37611 254.76 2.37611 255.122 2.42776C255.483 2.47941 255.742 2.53107 255.845 2.63438C256 2.73769 256 2.94431 255.948 3.15092C255.897 3.4092 255.742 3.71912 255.535 4.13236L249.182 15.8579Z" fill="black"/>
</g>
<defs>
<clipPath id="clip0">
<path d="M0 0H256V26.2922H0V0Z" fill="white"/>
</clipPath>
</defs>
</svg>
